<svg width="124" height="35" viewBox="0 0 124 35" fill="none" xmlns="http://www.w3.org/2000/svg">
<g clip-path="url(#clip0)">
<path fill-rule="evenodd" clip-rule="evenodd" d="M18.3889 20.501C17.2706 21.5571 15.5933 21.8677 14.2266 21.1222C13.1083 20.501 12.3007 19.2585 12.3007 17.9539C12.3007 17.022 12.6113 16.1523 13.1083 15.3447C13.6674 14.3507 14.2887 13.481 14.8478 12.487C15.3448 11.493 15.7797 10.4369 15.9039 9.38076C16.1524 7.45491 15.5933 5.59118 14.7857 3.8517C14.4751 3.23046 14.1023 2.54709 13.7296 1.92585C13.4811 1.55311 13.2326 1.11824 12.9841 0.745491C12.7356 0.43487 12.4871 0 12.0522 0C11.8658 0 11.7416 0.0621242 11.6173 0.124248C11.431 0.248497 11.3067 0.496994 11.3067 0.807615C11.3067 1.18036 11.3688 1.49098 11.3688 1.86373C11.3688 2.17435 11.3688 2.54709 11.3067 2.85771C11.2446 3.54108 11.0582 4.22445 10.8719 4.84569C10.6855 5.46693 10.3749 6.1503 10.0642 6.70942C9.81574 7.20641 9.50512 7.64128 9.13237 8.07615C7.51714 10.0641 5.28067 11.3066 3.54119 13.1082C0.869848 15.8417 -0.434761 19.9419 0.124358 23.7936C0.186482 24.2906 0.31073 24.7876 0.434979 25.2224C2.42295 26.4028 4.72155 27.1483 7.20652 27.1483C12.922 27.1483 18.0783 23.5451 19.8799 18.2645C19.5071 19.1343 19.0101 19.9419 18.3889 20.501Z" fill="#E88323"/>
<path fill-rule="evenodd" clip-rule="evenodd" d="M18.3889 20.501C17.2706 21.5571 15.5933 21.8677 14.2266 21.1222C13.1083 20.501 12.3007 19.2585 12.3007 17.9539C12.3007 17.022 12.6113 16.1523 13.1083 15.3447C13.6674 14.3507 14.2887 13.481 14.8478 12.487C15.3448 11.493 15.7797 10.4369 15.9039 9.38076C16.1524 7.45491 15.5933 5.59118 14.7857 3.8517C14.4751 3.23046 14.1023 2.54709 13.7296 1.92585C13.4811 1.55311 13.2326 1.11824 12.9841 0.745491C12.7356 0.43487 12.4871 0 12.0522 0C11.8658 0 11.7416 0.0621242 11.6173 0.124248C11.431 0.248497 11.3067 0.496994 11.3067 0.807615C11.3067 1.18036 11.3688 1.49098 11.3688 1.86373C11.3688 2.17435 11.3688 2.54709 11.3067 2.85771C11.2446 3.54108 11.0582 4.22445 10.8719 4.84569C10.6855 5.46693 10.3749 6.1503 10.0642 6.70942C9.81574 7.20641 9.50512 7.64128 9.13237 8.07615C7.51714 10.0641 5.28067 11.3066 3.54119 13.1082C0.869848 15.8417 -0.434761 19.9419 0.124358 23.7936C0.186482 24.2906 0.31073 24.7876 0.434979 25.2224C2.42295 26.4028 4.72155 27.1483 7.20652 27.1483C12.922 27.1483 18.0783 23.5451 19.8799 18.2645C19.5071 19.1343 19.0101 19.9419 18.3889 20.501Z" fill="url(#paint0_linear)" fill-opacity="0.2" style="mix-blend-mode:overlay"/>
<path fill-rule="evenodd" clip-rule="evenodd" d="M30.1309 20.3146C30.1309 16.7735 32.8643 14.1643 36.2812 14.1643C39.6359 14.1643 42.3693 16.7114 42.3693 20.3146C42.3693 23.8557 39.6359 26.4649 36.2812 26.4649C32.8643 26.4649 30.1309 23.9178 30.1309 20.3146ZM39.201 20.3146C39.201 18.0781 38.0828 16.6493 36.2812 16.6493C34.4174 16.6493 33.2992 18.0781 33.2992 20.3146C33.2992 22.5511 34.4174 23.9799 36.2812 23.9799C38.0828 24.0421 39.201 22.5511 39.201 20.3146Z" fill="#262941"/>
<path fill-rule="evenodd" clip-rule="evenodd" d="M43.7969 20.3146C43.7969 16.525 46.6546 14.1643 49.9472 14.1643C51.5003 14.1643 53.0534 14.5992 53.9853 15.3447V18.0781C53.0534 17.2705 51.873 16.7114 50.4442 16.7114C48.5183 16.7114 47.0273 17.9539 47.0273 20.3146C47.0273 22.6753 48.5183 23.9178 50.4442 23.9178C51.8109 23.9178 53.0534 23.3587 53.9853 22.5511V25.2845C53.0534 26.03 51.5003 26.4649 49.9472 26.4649C46.6546 26.4649 43.7969 24.1663 43.7969 20.3146Z" fill="#262941"/>
<path fill-rule="evenodd" clip-rule="evenodd" d="M59.2048 17.022H55.6016V14.7234H65.7899V17.022H62.1867V25.9679H59.2048V17.022Z" fill="#262941"/>
<path fill-rule="evenodd" clip-rule="evenodd" d="M70.2621 14.7234H72.8713L77.717 25.9679H74.6108L73.6168 23.545H69.3923L68.4605 25.9679H65.4785L70.2621 14.7234ZM72.9334 21.6192L71.5667 18.0781L70.2 21.6192H72.9334Z" fill="#262941"/>
<path fill-rule="evenodd" clip-rule="evenodd" d="M79.7676 14.7234H82.0662L87.2225 21.1843V14.7234H89.956V25.9679H87.6574L82.4389 19.507V25.9679H79.7676V14.7234Z" fill="#262941"/>
<path fill-rule="evenodd" clip-rule="evenodd" d="M93.0625 14.7234H101.201V17.022H96.2308V18.8857H100.207V21.1843H96.2308V23.6693H101.201V25.9679H93.0625V14.7234Z" fill="#262941"/>
<path fill-rule="evenodd" clip-rule="evenodd" d="M112.133 14.7234H114.742L119.588 25.9679H116.482L115.488 23.545H111.263L110.332 25.9679H107.35L112.133 14.7234ZM114.805 21.6192L113.438 18.0781L112.071 21.6192H114.805Z" fill="#262941"/>
<path d="M123.999 14.7234H120.955V25.9679H123.999V14.7234Z" fill="#262941"/>
<path fill-rule="evenodd" clip-rule="evenodd" d="M24.7873 19.9418C24.663 19.0099 24.4145 18.0159 24.0418 17.1462C23.7933 16.525 23.4827 15.9658 23.172 15.4067C22.9235 15.034 22.675 14.7233 22.4266 14.3506C22.1781 14.1021 21.9917 13.6672 21.5568 13.6672C21.1219 13.6672 20.8734 14.04 20.8113 14.4127C20.625 15.5931 20.4386 16.8356 20.0037 17.9538C18.14 23.1722 13.1079 26.8376 7.20611 26.8376C4.72114 26.8376 2.42255 26.2163 0.43457 25.036C0.558819 25.533 0.745192 25.9678 0.931564 26.4648C2.0498 29.074 4.03778 31.2484 6.52275 32.6151C10.6851 34.8516 16.0899 34.4789 19.8795 31.6833C21.1219 30.8135 22.1781 29.6332 22.9857 28.3907C23.7933 27.1482 24.3524 25.7193 24.663 24.2905C24.9736 22.9237 25.0358 21.3706 24.7873 19.9418Z" fill="#F8981D"/>
<path fill-rule="evenodd" clip-rule="evenodd" d="M24.7873 19.9418C24.663 19.0099 24.4145 18.0159 24.0418 17.1462C23.7933 16.525 23.4827 15.9658 23.172 15.4067C22.9235 15.034 22.675 14.7233 22.4266 14.3506C22.1781 14.1021 21.9917 13.6672 21.5568 13.6672C21.1219 13.6672 20.8734 14.04 20.8113 14.4127C20.625 15.5931 20.4386 16.8356 20.0037 17.9538C18.14 23.1722 13.1079 26.8376 7.20611 26.8376C4.72114 26.8376 2.42255 26.2163 0.43457 25.036C0.558819 25.533 0.745192 25.9678 0.931564 26.4648C2.0498 29.074 4.03778 31.2484 6.52275 32.6151C10.6851 34.8516 16.0899 34.4789 19.8795 31.6833C21.1219 30.8135 22.1781 29.6332 22.9857 28.3907C23.7933 27.1482 24.3524 25.7193 24.663 24.2905C24.9736 22.9237 25.0358 21.3706 24.7873 19.9418Z" fill="url(#paint1_linear)" fill-opacity="0.4" style="mix-blend-mode:overlay"/>
</g>
<defs>
<linearGradient id="paint0_linear" x1="9.93835" y1="0" x2="9.93835" y2="27.1483" gradientUnits="userSpaceOnUse">
<stop stop-color="white"/>
<stop offset="1" stop-color="white" stop-opacity="0"/>
</linearGradient>
<linearGradient id="paint1_linear" x1="12.6876" y1="13.6672" x2="12.6876" y2="34.0679" gradientUnits="userSpaceOnUse">
<stop stop-color="white"/>
<stop offset="1" stop-color="white" stop-opacity="0"/>
</linearGradient>
<clipPath id="clip0">
<rect width="124" height="34.1062" fill="white"/>
</clipPath>
</defs>
</svg>
